<svg width="28" height="28" viewBox="0 0 28 28" fill="none" xmlns="http://www.w3.org/2000/svg">
<path d="M6.20539 16.9208L5.23075 20.5592L1.66846 20.6346C0.60386 18.66 0 16.4008 0 14C0 11.6785 0.564594 9.48923 1.56538 7.56155H1.56614L4.73758 8.14299L6.12686 11.2954C5.83609 12.1431 5.6776 13.0531 5.6776 14C5.67771 15.0277 5.86387 16.0124 6.20539 16.9208Z" fill="#FBBB00"/>
<path d="M27.7555 11.3846C27.9162 12.2315 28.0001 13.1061 28.0001 14C28.0001 15.0023 27.8947 15.98 27.6939 16.9231C27.0124 20.1323 25.2316 22.9346 22.7647 24.9177L22.764 24.9169L18.7694 24.7131L18.204 21.1838C19.8409 20.2239 21.1202 18.7215 21.794 16.9231H14.3078V11.3846H21.9032H27.7555Z" fill="#518EF8"/>
<path d="M22.7638 24.9169L22.7646 24.9177C20.3654 26.8462 17.3176 28 14 28C8.66843 28 4.03306 25.02 1.66843 20.6346L6.20536 16.9208C7.38765 20.0762 10.4315 22.3223 14 22.3223C15.5338 22.3223 16.9708 21.9077 18.2038 21.1839L22.7638 24.9169Z" fill="#28B446"/>
<path d="M22.9362 3.22306L18.4008 6.93613C17.1247 6.13845 15.6162 5.67766 14.0001 5.67766C10.3508 5.67766 7.25003 8.02687 6.12697 11.2954L1.5662 7.56153H1.56543C3.89545 3.06923 8.58927 0 14.0001 0C17.397 0 20.5116 1.21002 22.9362 3.22306Z" fill="#F14336"/>
</svg>
