<svg width="40" height="40" viewBox="0 0 40 40" fill="none" xmlns="http://www.w3.org/2000/svg">
<path opacity="0.2" d="M40 20C40 31.0457 31.0457 40 20 40C8.9543 40 0 31.0457 0 20C0 8.9543 8.9543 0 20 0C31.0457 0 40 8.9543 40 20Z" fill="#185ADB"/>
<path d="M24.0346 16.4286H15.9654L20 19.8868L24.0346 16.4286Z" fill="#185ADB"/>
<path d="M20 20.7143C19.9147 20.7143 19.8322 20.6838 19.7675 20.6281L15.3571 16.8478V23.5714H24.6429V16.8478L20.2325 20.6281C20.1678 20.6838 20.0853 20.7143 20 20.7143Z" fill="#185ADB"/>
<path d="M20 10C14.4772 10 10 14.4772 10 20C10 25.5228 14.4772 30 20 30C25.5228 30 30 25.5228 30 20C29.9937 14.4798 25.5202 10.0063 20 10ZM25.3571 23.9286C25.3571 24.1258 25.1972 24.2857 25 24.2857H15C14.8028 24.2857 14.6429 24.1258 14.6429 23.9286V16.0714C14.6429 15.8742 14.8028 15.7143 15 15.7143H25C25.1972 15.7143 25.3571 15.8742 25.3571 16.0714V23.9286Z" fill="#185ADB"/>
</svg>
