<svg width="258" height="258" viewBox="0 0 258 258" fill="none" xmlns="http://www.w3.org/2000/svg">
<path opacity="0.2" d="M108.215 36C117.453 20 140.547 20 149.785 36L219.933 157.5C229.17 173.5 217.623 193.5 199.148 193.5H58.8519C40.3767 193.5 28.8297 173.5 38.0673 157.5L108.215 36Z" fill="#FFC947"/>
<path opacity="0.7" d="M150 64.9141C160.667 58.7557 174 66.4537 174 78.7705L174 179.229C174 191.546 160.667 199.244 150 193.086L63 142.856C52.3333 136.698 52.3333 121.302 63 115.144L150 64.9141Z" fill="#FFC947"/>
<path d="M143.079 138.836C143.079 138.836 151.639 141.944 153.35 151.814H154.673C154.673 151.814 154.128 141.166 143.469 135.882L143.079 138.836Z" fill="#233B61"/>
<path d="M155.57 152.956C155.57 152.956 158.793 154.566 158.655 158.014C158.517 161.463 155.248 163.533 152.577 161.602C149.907 159.67 151.012 157.141 151.012 157.141C151.012 157.141 149.953 157.647 149.907 155.807C149.861 153.968 153.222 152.956 153.222 152.956H155.57Z" fill="#0A1931"/>
<path d="M154.968 151.64H153.523C152.965 151.64 152.512 152.092 152.512 152.65C152.512 153.208 152.965 153.66 153.523 153.66H154.968C155.526 153.66 155.979 153.208 155.979 152.65C155.979 152.092 155.526 151.64 154.968 151.64Z" fill="#0A1931"/>
<path d="M101.668 133.31C101.668 133.31 93.4826 137.297 85.1882 131.667L84.2689 132.617C84.2689 132.617 92.3122 139.626 103.525 135.643L101.668 133.31Z" fill="#233B61"/>
<path d="M82.904 132.266C82.904 132.266 79.5056 133.462 77.1188 130.966C74.7319 128.47 75.5143 124.684 78.7605 124.109C82.0066 123.533 83.0594 126.084 83.0594 126.084C83.0594 126.084 83.4313 124.972 84.7874 126.218C86.1435 127.463 84.5356 130.58 84.5356 130.58L82.904 132.266Z" fill="#0A1931"/>
<path d="M83.8199 130.307L82.816 131.345C82.4278 131.746 82.4387 132.385 82.8402 132.773C83.2417 133.16 83.8818 133.15 84.27 132.749L85.2739 131.711C85.662 131.31 85.6512 130.671 85.2497 130.283C84.8482 129.896 84.208 129.906 83.8199 130.307Z" fill="#0A1931"/>
<path d="M106.68 130.967C106.68 130.967 110.271 125.432 122.358 125.612C134.445 125.792 138.239 130.967 138.239 130.967C138.239 130.967 143.145 130.386 144.005 135.109C144.865 139.833 142.387 140.262 142.387 140.262C142.387 140.262 142.79 164.913 123.978 164.913C105.166 164.913 102.027 148.041 101.825 140.262C99.3347 137.347 100.424 134.783 101.28 133.228C102.136 131.674 104.433 130.201 106.68 130.967Z" fill="#233B61"/>
<path d="M122.358 125.613C134.445 125.793 138.24 130.967 138.24 130.967C138.24 130.967 143.145 130.386 144.005 135.11C144.865 139.833 142.387 140.262 142.387 140.262C142.387 140.262 142.79 164.913 123.978 164.913C114.741 164.913 109.283 160.845 106.053 155.717C106.053 155.717 122.766 168.052 131.473 152.999C143.556 129.832 122.358 125.613 122.358 125.613Z" fill="#0A1931"/>
<path d="M136.021 140.177C136.021 140.177 129.752 136.359 121.716 136.887C113.679 137.415 109.026 140.833 109.026 140.833" stroke="#0A1931" stroke-width="4" stroke-linecap="round"/>
<path d="M136.021 149.987C136.021 149.987 129.752 146.17 121.716 146.698C113.679 147.226 109.026 150.644 109.026 150.644" stroke="#0A1931" stroke-width="4" stroke-linecap="round"/>
<path d="M103.933 134.711C103.933 134.711 101.431 141.468 103.933 148.467" stroke="#0A1931" stroke-width="2" stroke-linecap="round"/>
<path d="M90.723 107.719C95.0253 107.942 98.7596 103.395 99.0639 97.563C99.3682 91.7307 96.1272 86.8215 91.825 86.5981C87.5227 86.3747 83.7884 90.9216 83.4841 96.7539C83.1798 102.586 86.4208 107.495 90.723 107.719Z" fill="#0A1931"/>
<path d="M156.328 112.244C160.63 112.468 164.364 107.921 164.669 102.088C164.973 96.256 161.732 91.3468 157.43 91.1234C153.128 90.8999 149.393 95.4469 149.089 101.279C148.785 107.112 152.026 112.021 156.328 112.244Z" fill="#0A1931"/>
<path d="M136.036 74.3144L116.003 73.2729C102.481 72.5699 90.9484 82.9486 90.2445 96.4543C89.5407 109.96 99.9321 121.479 113.454 122.182L133.487 123.223C147.009 123.926 158.542 113.547 159.245 100.042C159.949 86.5359 149.558 75.0174 136.036 74.3144Z" fill="#233B61"/>
<path d="M134.596 79.9689L116.789 79.0432C106.34 78.4999 97.4284 86.5198 96.8845 96.9561L96.8845 96.9563C96.3406 107.393 104.37 116.293 114.819 116.836L132.626 117.762C143.075 118.305 151.986 110.286 152.53 99.8493L152.53 99.849C153.074 89.4128 145.045 80.5122 134.596 79.9689Z" fill="#FFF9FF"/>
<path d="M118.087 96.3314C118.167 94.7967 116.987 93.4878 115.45 93.408C113.914 93.3282 112.603 94.5077 112.523 96.0425L112.291 100.489C112.211 102.024 113.392 103.333 114.928 103.413C116.465 103.492 117.775 102.313 117.855 100.778L118.087 96.3314Z" fill="#233B61"/>
<path d="M134.781 97.1991C134.861 95.6644 133.681 94.3555 132.144 94.2757C130.608 94.1959 129.297 95.3754 129.217 96.9102L128.985 101.357C128.905 102.892 130.086 104.2 131.622 104.28C133.159 104.36 134.469 103.18 134.549 101.646L134.781 97.1991Z" fill="#233B61"/>
</svg>
