<svg width="40" height="40" viewBox="0 0 40 40" fill="none" xmlns="http://www.w3.org/2000/svg">
<circle opacity="0.1" cx="20" cy="20" r="20" fill="#0A1931"/>
<path d="M26.125 17.5H25.5V15C25.5 12.2425 23.2575 10 20.5 10C17.7425 10 15.5 12.2425 15.5 15V17.5H14.875C13.8417 17.5 13 18.3408 13 19.375V28.125C13 29.1592 13.8417 30 14.875 30H26.125C27.1583 30 28 29.1592 28 28.125V19.375C28 18.3408 27.1583 17.5 26.125 17.5ZM17.1667 15C17.1667 13.1617 18.6617 11.6667 20.5 11.6667C22.3383 11.6667 23.8333 13.1617 23.8333 15V17.5H17.1667V15ZM21.3333 23.935V25.8333C21.3333 26.2933 20.9608 26.6667 20.5 26.6667C20.0392 26.6667 19.6667 26.2933 19.6667 25.8333V23.935C19.1708 23.6458 18.8333 23.1142 18.8333 22.5C18.8333 21.5808 19.5808 20.8333 20.5 20.8333C21.4192 20.8333 22.1667 21.5808 22.1667 22.5C22.1667 23.1142 21.8292 23.6458 21.3333 23.935Z" fill="#0A1931"/>
</svg>
