<svg width="40" height="40" viewBox="0 0 40 40" fill="none" xmlns="http://www.w3.org/2000/svg">
<circle opacity="0.2" cx="20" cy="20" r="20" fill="#FFC947"/>
<path d="M20 10C14.4777 10 10 14.4769 10 19.9996C10 25.5223 14.4773 29.9991 20 29.9991C25.5231 29.9991 30 25.5223 30 19.9996C30 14.4769 25.5231 10 20 10ZM20 12.99C21.8273 12.99 23.308 14.4711 23.308 16.2975C23.308 18.1244 21.8273 19.6051 20 19.6051C18.1736 19.6051 16.6929 18.1244 16.6929 16.2975C16.6929 14.4711 18.1736 12.99 20 12.99ZM19.9978 27.3847C18.1753 27.3847 16.5062 26.721 15.2187 25.6224C14.9051 25.3549 14.7242 24.9627 14.7242 24.5511C14.7242 22.6988 16.2233 21.2163 18.0761 21.2163H21.9248C23.778 21.2163 25.2715 22.6988 25.2715 24.5511C25.2715 24.9631 25.0914 25.3545 24.7773 25.622C23.4903 26.721 21.8207 27.3847 19.9978 27.3847Z" fill="#FFC947"/>
</svg>
